<?xml version="1.0" encoding="utf-8"?>
<!-- Generator: Adobe Illustrator 23.1.1, SVG Export Plug-In . SVG Version: 6.00 Build 0)  -->
<svg version="1.1" id="圖層_1" xmlns="http://www.w3.org/2000/svg" xmlns:xlink="http://www.w3.org/1999/xlink" x="0px" y="0px"
	 viewBox="0 0 99.2 99.2" style="enable-background:new 0 0 99.2 99.2;" xml:space="preserve">
<style type="text/css">
	.st0{fill:#FFFFFF;}
</style>
<path class="st0" d="M80.6,0h-62C8.3,0,0,8.3,0,18.6v62c0,10.3,8.3,18.6,18.6,18.6h62c10.3,0,18.6-8.3,18.6-18.6v-62
	C99.2,8.3,90.9,0,80.6,0z M78.1,53.4h-9.3v34.4H53.3V53.4h-6V41.9h6v-7.4c0-9.7,4-15.4,15.4-15.4h11.5v11.5h-6.7
	c-4.4,0-4.7,1.6-4.7,4.7v6.5h10.6L78.1,53.4z"/>
</svg>
