<?xml version="1.0" encoding="utf-8"?>
<!-- Generator: Adobe Illustrator 23.1.1, SVG Export Plug-In . SVG Version: 6.00 Build 0)  -->
<svg version="1.1" id="圖層_1" xmlns="http://www.w3.org/2000/svg" xmlns:xlink="http://www.w3.org/1999/xlink" x="0px" y="0px"
	 viewBox="0 0 99.2 99.2" style="enable-background:new 0 0 99.2 99.2;" xml:space="preserve">
<style type="text/css">
	.st0{fill:#FFFFFF;}
</style>
<path class="st0" d="M29.3,0C13.1,0,0,13.1,0,29.3v40.6c0,16.2,13.1,29.3,29.3,29.3h40.6c16.2,0,29.3-13.1,29.3-29.3V29.3
	C99.2,13.1,86.1,0,69.9,0H29.3z M76.7,18c2.5,0,4.5,2,4.5,4.5s-2,4.5-4.5,4.5c-2.5,0-4.5-2-4.5-4.5S74.2,18,76.7,18z M49.6,24.8
	c13.7,0,24.8,11.1,24.8,24.8S63.3,74.4,49.6,74.4S24.8,63.3,24.8,49.6S35.9,24.8,49.6,24.8z M49.6,29.3c-11.2,0-20.3,9.1-20.3,20.3
	s9.1,20.3,20.3,20.3s20.3-9.1,20.3-20.3S60.8,29.3,49.6,29.3z"/>
</svg>
